<svg xmlns="http://www.w3.org/2000/svg" xmlns:xlink="http://www.w3.org/1999/xlink" width="2000" zoomAndPan="magnify" viewBox="0 0 1500 1499.999933" height="2000" preserveAspectRatio="xMidYMid meet" version="1.0"><defs><g/></defs><rect x="-150" width="1800" fill="#ffffff" y="-149.999993" height="1799.99992" fill-opacity="1"/><rect x="-150" width="1800" fill="#006045" y="-149.999993" height="1799.99992" fill-opacity="1"/><g fill="#ffffff" fill-opacity="1"><g transform="translate(238.199998, 1706.640313)"><g><path d="M 1218.0625 -944.265625 L 508.78125 -944.265625 L 513.09375 -478.59375 L 827.84375 -476.4375 C 899.707031 -475.007812 965.101562 -456.6875 1024.03125 -421.46875 C 1082.957031 -386.257812 1130.023438 -338.832031 1165.234375 -279.1875 C 1200.453125 -219.539062 1218.0625 -153.785156 1218.0625 -81.921875 L 1218.0625 0 L 478.59375 -2.15625 C 388.050781 -6.46875 307.207031 -26.585938 236.0625 -62.515625 C 164.925781 -98.453125 108.515625 -149.832031 66.828125 -216.65625 C 25.148438 -283.488281 4.3125 -365.054688 4.3125 -461.359375 L 4.3125 -911.921875 C 4.3125 -970.847656 21.554688 -1021.507812 56.046875 -1063.90625 C 90.546875 -1106.3125 137.257812 -1146.195312 196.1875 -1183.5625 C 147.320312 -1203.6875 109.59375 -1231.351562 83 -1266.5625 C 56.414062 -1301.78125 37.734375 -1339.507812 26.953125 -1379.75 C 16.171875 -1419.988281 9.703125 -1458.070312 7.546875 -1494 C 5.390625 -1529.9375 4.3125 -1557.96875 4.3125 -1578.09375 L 4.3125 -1918.71875 C 4.3125 -2007.820312 27.304688 -2088.664062 73.296875 -2161.25 C 119.285156 -2233.832031 180.726562 -2291.320312 257.625 -2333.71875 C 334.519531 -2376.113281 418.957031 -2397.3125 510.9375 -2397.3125 L 521.71875 -1343.09375 L 1218.0625 -1343.09375 Z M 510.9375 -2397.3125 L 1099.484375 -2403.78125 C 1174.222656 -2403.78125 1248.597656 -2397.3125 1322.609375 -2384.375 C 1396.628906 -2371.445312 1464.539062 -2347.015625 1526.34375 -2311.078125 C 1588.144531 -2275.148438 1637.726562 -2224.128906 1675.09375 -2158.015625 C 1712.46875 -2091.898438 1731.15625 -2004.945312 1731.15625 -1897.15625 L 1729 -1461.671875 C 1729 -1415.679688 1717.5 -1368.253906 1694.5 -1319.390625 C 1671.507812 -1270.523438 1630.550781 -1225.96875 1571.625 -1185.71875 C 1597.488281 -1168.476562 1622.632812 -1148 1647.0625 -1124.28125 C 1671.5 -1100.5625 1691.265625 -1068.941406 1706.359375 -1029.421875 C 1721.453125 -989.898438 1729.71875 -937.082031 1731.15625 -870.96875 L 1731.15625 -504.46875 C 1731.15625 -413.925781 1707.441406 -330.207031 1660.015625 -253.3125 C 1612.585938 -176.414062 1550.066406 -114.972656 1472.453125 -68.984375 C 1394.835938 -22.992188 1310.039062 0 1218.0625 0 L 1218.0625 -1963.984375 L 903.3125 -1963.984375 C 831.445312 -1963.984375 766.050781 -1981.585938 707.125 -2016.796875 C 648.195312 -2052.015625 600.765625 -2099.085938 564.828125 -2158.015625 C 528.898438 -2216.941406 510.9375 -2282.335938 510.9375 -2354.203125 Z M 510.9375 -2397.3125 "/></g></g></g></svg>